<svg xmlns="http://www.w3.org/2000/svg"><defs><clipPath id="clip-1"><path d="M-32.53612,-36.95746v43.3398h79.4563v-43.3398z" stroke-width="4"/></clipPath><symbol viewBox="-1.96203,-12.78147,9.47102,25.56293" id="symbol-1"><path d="M1.95303,-3.21295c0,0 1.1093,2.4757 0.88594,4.93085c-0.5038,5.53756 -2.34026,11.05456 -2.34026,11.05456l-0.1012,-6.61211l-0.1012,-6.61211l-1.12467,1.83235l-1.12467,1.83235c0,0 1.83646,-5.517 2.34026,-11.05456c0.22336,-2.45515 -0.88594,-4.93085 -0.88594,-4.93085l3.99935,6.89623l3.99935,6.89623l-2.77348,-2.11647z" fill="none" fill-rule="nonzero" stroke="#2c302e" stroke-width="0.018" stroke-linecap="butt" stroke-linejoin="round" stroke-miterlimit="10" stroke-dasharray="" stroke-dashoffset="0" font-family="none" font-weight="none" font-size="none" text-anchor="none" style="mix-blend-mode: normal"/></symbol><symbol viewBox="-1.96203,-12.78147,9.47102,25.56293" id="symbol-2"><g fill="none" fill-rule="nonzero" stroke="none" stroke-width="none" stroke-linecap="butt" stroke-linejoin="none" stroke-miterlimit="10" stroke-dasharray="" stroke-dashoffset="0" font-family="none" font-weight="none" font-size="none" text-anchor="none" style="mix-blend-mode: normal"><path d="M1.95303,-3.21295c0,0 1.1093,2.4757 0.88594,4.93085c-0.5038,5.53756 -2.34026,11.05456 -2.34026,11.05456l-0.1012,-6.61211l-0.1012,-6.61211l-1.12467,1.83235l-1.12467,1.83235c0,0 1.83646,-5.517 2.34026,-11.05456c0.22336,-2.45515 -0.88594,-4.93085 -0.88594,-4.93085l3.99935,6.89623l3.99935,6.89623l-2.77348,-2.11647z" fill="#282e2b" stroke-width="0.018" stroke-linejoin="round"/><use x="-1.96203" y="-12.78147" a0:href="#symbol-1" xmlns:a0="http://www.w3.org/1999/xlink" width="9.47102" height="25.56293" overflow="visible" fill="none" stroke-width="1" stroke-linejoin="miter"/></g></symbol><symbol viewBox="-1.96203,-12.78147,9.47102,25.56293" id="symbol-3"><g fill="none" fill-rule="nonzero" stroke="none" stroke-width="none" stroke-linecap="butt" stroke-linejoin="none" stroke-miterlimit="10" stroke-dasharray="" stroke-dashoffset="0" font-family="none" font-weight="none" font-size="none" text-anchor="none" style="mix-blend-mode: normal"><path d="M1.95303,-3.21295c0,0 1.1093,2.4757 0.88594,4.93085c-0.5038,5.53756 -2.34026,11.05456 -2.34026,11.05456l-0.1012,-6.61211l-0.1012,-6.61211l-1.12467,1.83235l-1.12467,1.83235c0,0 1.83646,-5.517 2.34026,-11.05456c0.22336,-2.45515 -0.88594,-4.93085 -0.88594,-4.93085l3.99935,6.89623l3.99935,6.89623l-2.77348,-2.11647z" fill="#303734" stroke-width="0.018" stroke-linejoin="round"/><use x="-1.96203" y="-12.78147" a1:href="#symbol-1" xmlns:a1="http://www.w3.org/1999/xlink" width="9.47102" height="25.56293" overflow="visible" fill="none" stroke-width="1" stroke-linejoin="miter"/></g></symbol><symbol viewBox="-1.96203,-12.78147,9.47102,25.56293" id="symbol-4"><g fill="none" fill-rule="nonzero" stroke="none" stroke-width="none" stroke-linecap="butt" stroke-linejoin="none" stroke-miterlimit="10" stroke-dasharray="" stroke-dashoffset="0" font-family="none" font-weight="none" font-size="none" text-anchor="none" style="mix-blend-mode: normal"><path d="M1.95303,-3.21295c0,0 1.1093,2.4757 0.88594,4.93085c-0.5038,5.53756 -2.34026,11.05456 -2.34026,11.05456l-0.1012,-6.61211l-0.1012,-6.61211l-1.12467,1.83235l-1.12467,1.83235c0,0 1.83646,-5.517 2.34026,-11.05456c0.22336,-2.45515 -0.88594,-4.93085 -0.88594,-4.93085l3.99935,6.89623l3.99935,6.89623l-2.77348,-2.11647z" fill="#2c302e" stroke-width="0.018" stroke-linejoin="round"/><use x="-1.96203" y="-12.78147" a2:href="#symbol-1" xmlns:a2="http://www.w3.org/1999/xlink" width="9.47102" height="25.56293" overflow="visible" fill="none" stroke-width="1" stroke-linejoin="miter"/></g></symbol></defs><g transform="translate(522.50213,102.49493) scale(16.05914,-16.05914)" fill="none" fill-rule="nonzero" stroke="none" stroke-width="none" stroke-linecap="butt" stroke-linejoin="miter" stroke-miterlimit="10" stroke-dasharray="" stroke-dashoffset="0" font-family="none" font-weight="none" font-size="none" text-anchor="none" style="mix-blend-mode: normal"><g clip-path="url(#clip-1)"><g transform="translate(32.02644,28.3298)" stroke-width="1"><use x="-8.96331" y="-1.02899" transform="rotate(180)" a3:href="#symbol-2" xmlns:a3="http://www.w3.org/1999/xlink" width="9.47102" height="25.56293" overflow="visible"/></g><g transform="translate(40.68444,13.81614)" stroke-width="1"><use x="-1.96203" y="-12.78147" transform="" a4:href="#symbol-3" xmlns:a4="http://www.w3.org/1999/xlink" width="9.47102" height="25.56293" overflow="visible"/><use x="-8.96331" y="-1.02899" transform="rotate(180)" a5:href="#symbol-2" xmlns:a5="http://www.w3.org/1999/xlink" width="9.47102" height="25.56293" overflow="visible"/></g><g transform="translate(29.5747,18.77028)" stroke-width="1"><use x="-1.96203" y="-12.78147" transform="" a6:href="#symbol-4" xmlns:a6="http://www.w3.org/1999/xlink" width="9.47102" height="25.56293" overflow="visible"/><use x="-8.96331" y="-1.02899" transform="rotate(180)" a7:href="#symbol-3" xmlns:a7="http://www.w3.org/1999/xlink" width="9.47102" height="25.56293" overflow="visible"/></g><g transform="translate(38.2327,4.25662)" stroke-width="1"><use x="-1.96203" y="-12.78147" transform="" a8:href="#symbol-4" xmlns:a8="http://www.w3.org/1999/xlink" width="9.47102" height="25.56293" overflow="visible"/><use x="-8.96331" y="-1.02899" transform="rotate(180)" a9:href="#symbol-3" xmlns:a9="http://www.w3.org/1999/xlink" width="9.47102" height="25.56293" overflow="visible"/></g><g transform="translate(46.8907,-10.25704)" stroke-width="1"><use x="-1.96203" y="-12.78147" transform="" a10:href="#symbol-4" xmlns:a10="http://www.w3.org/1999/xlink" width="9.47102" height="25.56293" overflow="visible"/><use x="-8.96331" y="-1.02899" transform="rotate(180)" a11:href="#symbol-3" xmlns:a11="http://www.w3.org/1999/xlink" width="9.47102" height="25.56293" overflow="visible"/></g><g transform="translate(18.46496,23.72442)" stroke-width="1"><use x="-8.96331" y="-1.02899" transform="rotate(180)" a12:href="#symbol-4" xmlns:a12="http://www.w3.org/1999/xlink" width="9.47102" height="25.56293" overflow="visible"/></g><g transform="translate(27.12296,9.21076)" stroke-width="1"><use x="-1.96203" y="-12.78147" transform="" a13:href="#symbol-2" xmlns:a13="http://www.w3.org/1999/xlink" width="9.47102" height="25.56293" overflow="visible"/><use x="-8.96331" y="-1.02899" transform="rotate(180)" a14:href="#symbol-4" xmlns:a14="http://www.w3.org/1999/xlink" width="9.47102" height="25.56293" overflow="visible"/></g><g transform="translate(35.78096,-5.3029)" stroke-width="1"><use x="-1.96203" y="-12.78147" transform="" a15:href="#symbol-2" xmlns:a15="http://www.w3.org/1999/xlink" width="9.47102" height="25.56293" overflow="visible"/><use x="-8.96331" y="-1.02899" transform="rotate(180)" a16:href="#symbol-4" xmlns:a16="http://www.w3.org/1999/xlink" width="9.47102" height="25.56293" overflow="visible"/></g><g transform="translate(44.43896,-19.81656)" stroke-width="1"><use x="-1.96203" y="-12.78147" transform="" a17:href="#symbol-2" xmlns:a17="http://www.w3.org/1999/xlink" width="9.47102" height="25.56293" overflow="visible"/><use x="-8.96331" y="-1.02899" transform="rotate(180)" a18:href="#symbol-4" xmlns:a18="http://www.w3.org/1999/xlink" width="9.47102" height="25.56293" overflow="visible"/></g><g transform="translate(7.35522,28.67856)" stroke-width="1"><use x="-8.96331" y="-1.02899" transform="rotate(180)" a19:href="#symbol-2" xmlns:a19="http://www.w3.org/1999/xlink" width="9.47102" height="25.56293" overflow="visible"/></g><g transform="translate(16.01322,14.1649)" stroke-width="1"><use x="-1.96203" y="-12.78147" transform="" a20:href="#symbol-3" xmlns:a20="http://www.w3.org/1999/xlink" width="9.47102" height="25.56293" overflow="visible"/><use x="-8.96331" y="-1.02899" transform="rotate(180)" a21:href="#symbol-2" xmlns:a21="http://www.w3.org/1999/xlink" width="9.47102" height="25.56293" overflow="visible"/></g><g transform="translate(24.67122,-0.34876)" stroke-width="1"><use x="-1.96203" y="-12.78147" transform="" a22:href="#symbol-3" xmlns:a22="http://www.w3.org/1999/xlink" width="9.47102" height="25.56293" overflow="visible"/><use x="-8.96331" y="-1.02899" transform="rotate(180)" a23:href="#symbol-2" xmlns:a23="http://www.w3.org/1999/xlink" width="9.47102" height="25.56293" overflow="visible"/></g><g transform="translate(33.32922,-14.86242)" stroke-width="1"><use x="-1.96203" y="-12.78147" transform="" a24:href="#symbol-3" xmlns:a24="http://www.w3.org/1999/xlink" width="9.47102" height="25.56293" overflow="visible"/><use x="-8.96331" y="-1.02899" transform="rotate(180)" a25:href="#symbol-2" xmlns:a25="http://www.w3.org/1999/xlink" width="9.47102" height="25.56293" overflow="visible"/></g><g transform="translate(41.98722,-29.37608)" stroke-width="1"><use x="-1.96203" y="-12.78147" transform="" a26:href="#symbol-3" xmlns:a26="http://www.w3.org/1999/xlink" width="9.47102" height="25.56293" overflow="visible"/><use x="-8.96331" y="-1.02899" transform="rotate(180)" a27:href="#symbol-2" xmlns:a27="http://www.w3.org/1999/xlink" width="9.47102" height="25.56293" overflow="visible"/></g><g transform="translate(4.90348,19.11904)" stroke-width="1"><use x="-1.96203" y="-12.78147" transform="" a28:href="#symbol-4" xmlns:a28="http://www.w3.org/1999/xlink" width="9.47102" height="25.56293" overflow="visible"/><use x="-8.96331" y="-1.02899" transform="rotate(180)" a29:href="#symbol-3" xmlns:a29="http://www.w3.org/1999/xlink" width="9.47102" height="25.56293" overflow="visible"/></g><g transform="translate(13.56148,4.60538)" stroke-width="1"><use x="-1.96203" y="-12.78147" transform="" a30:href="#symbol-4" xmlns:a30="http://www.w3.org/1999/xlink" width="9.47102" height="25.56293" overflow="visible"/><use x="-8.96331" y="-1.02899" transform="rotate(180)" a31:href="#symbol-3" xmlns:a31="http://www.w3.org/1999/xlink" width="9.47102" height="25.56293" overflow="visible"/></g><g transform="translate(22.21948,-9.90828)" stroke-width="1"><use x="-1.96203" y="-12.78147" transform="" a32:href="#symbol-4" xmlns:a32="http://www.w3.org/1999/xlink" width="9.47102" height="25.56293" overflow="visible"/><use x="-8.96331" y="-1.02899" transform="rotate(180)" a33:href="#symbol-3" xmlns:a33="http://www.w3.org/1999/xlink" width="9.47102" height="25.56293" overflow="visible"/></g><g transform="translate(30.87748,-24.42194)" stroke-width="1"><use x="-1.96203" y="-12.78147" transform="" a34:href="#symbol-4" xmlns:a34="http://www.w3.org/1999/xlink" width="9.47102" height="25.56293" overflow="visible"/><use x="-8.96331" y="-1.02899" transform="rotate(180)" a35:href="#symbol-3" xmlns:a35="http://www.w3.org/1999/xlink" width="9.47102" height="25.56293" overflow="visible"/></g><g transform="translate(39.53548,-38.9356)" stroke-width="1"><use x="-1.96203" y="-12.78147" transform="" a36:href="#symbol-4" xmlns:a36="http://www.w3.org/1999/xlink" width="9.47102" height="25.56293" overflow="visible"/></g><g transform="translate(-6.20626,24.07318)" stroke-width="1"><use x="-8.96331" y="-1.02899" transform="rotate(180)" a37:href="#symbol-4" xmlns:a37="http://www.w3.org/1999/xlink" width="9.47102" height="25.56293" overflow="visible"/></g><g transform="translate(2.45174,9.55952)" stroke-width="1"><use x="-1.96203" y="-12.78147" transform="" a38:href="#symbol-2" xmlns:a38="http://www.w3.org/1999/xlink" width="9.47102" height="25.56293" overflow="visible"/><use x="-8.96331" y="-1.02899" transform="rotate(180)" a39:href="#symbol-4" xmlns:a39="http://www.w3.org/1999/xlink" width="9.47102" height="25.56293" overflow="visible"/></g><g transform="translate(11.10974,-4.95414)" stroke-width="1"><use x="-1.96203" y="-12.78147" transform="" a40:href="#symbol-2" xmlns:a40="http://www.w3.org/1999/xlink" width="9.47102" height="25.56293" overflow="visible"/><use x="-8.96331" y="-1.02899" transform="rotate(180)" a41:href="#symbol-4" xmlns:a41="http://www.w3.org/1999/xlink" width="9.47102" height="25.56293" overflow="visible"/></g><g transform="translate(19.76774,-19.4678)" stroke-width="1"><use x="-1.96203" y="-12.78147" transform="" a42:href="#symbol-2" xmlns:a42="http://www.w3.org/1999/xlink" width="9.47102" height="25.56293" overflow="visible"/><use x="-8.96331" y="-1.02899" transform="rotate(180)" a43:href="#symbol-4" xmlns:a43="http://www.w3.org/1999/xlink" width="9.47102" height="25.56293" overflow="visible"/></g><g transform="translate(28.42574,-33.98146)" stroke-width="1"><use x="-1.96203" y="-12.78147" transform="" a44:href="#symbol-2" xmlns:a44="http://www.w3.org/1999/xlink" width="9.47102" height="25.56293" overflow="visible"/><use x="-8.96331" y="-1.02899" transform="rotate(180)" a45:href="#symbol-4" xmlns:a45="http://www.w3.org/1999/xlink" width="9.47102" height="25.56293" overflow="visible"/></g><g transform="translate(37.08374,-48.49512)" stroke-width="1"><use x="-1.96203" y="-12.78147" transform="" a46:href="#symbol-2" xmlns:a46="http://www.w3.org/1999/xlink" width="9.47102" height="25.56293" overflow="visible"/></g><g transform="translate(-17.316,29.02732)" stroke-width="1"><use x="-8.96331" y="-1.02899" transform="rotate(180)" a47:href="#symbol-2" xmlns:a47="http://www.w3.org/1999/xlink" width="9.47102" height="25.56293" overflow="visible"/></g><g transform="translate(-8.658,14.51366)" stroke-width="1"><use x="-1.96203" y="-12.78147" transform="" a48:href="#symbol-3" xmlns:a48="http://www.w3.org/1999/xlink" width="9.47102" height="25.56293" overflow="visible"/><use x="-8.96331" y="-1.02899" transform="rotate(180)" a49:href="#symbol-2" xmlns:a49="http://www.w3.org/1999/xlink" width="9.47102" height="25.56293" overflow="visible"/></g><g stroke-width="1"><use x="-1.96203" y="-12.78147" transform="" a50:href="#symbol-3" xmlns:a50="http://www.w3.org/1999/xlink" width="9.47102" height="25.56293" overflow="visible"/><use x="-8.96331" y="-1.02899" transform="rotate(180)" a51:href="#symbol-2" xmlns:a51="http://www.w3.org/1999/xlink" width="9.47102" height="25.56293" overflow="visible"/></g><g transform="translate(8.658,-14.51366)" stroke-width="1"><use x="-1.96203" y="-12.78147" transform="" a52:href="#symbol-3" xmlns:a52="http://www.w3.org/1999/xlink" width="9.47102" height="25.56293" overflow="visible"/><use x="-8.96331" y="-1.02899" transform="rotate(180)" a53:href="#symbol-2" xmlns:a53="http://www.w3.org/1999/xlink" width="9.47102" height="25.56293" overflow="visible"/></g><g transform="translate(17.316,-29.02732)" stroke-width="1"><use x="-1.96203" y="-12.78147" transform="" a54:href="#symbol-3" xmlns:a54="http://www.w3.org/1999/xlink" width="9.47102" height="25.56293" overflow="visible"/><use x="-8.96331" y="-1.02899" transform="rotate(180)" a55:href="#symbol-2" xmlns:a55="http://www.w3.org/1999/xlink" width="9.47102" height="25.56293" overflow="visible"/></g><g transform="translate(25.974,-43.54098)" stroke-width="1"><use x="-1.96203" y="-12.78147" transform="" a56:href="#symbol-3" xmlns:a56="http://www.w3.org/1999/xlink" width="9.47102" height="25.56293" overflow="visible"/></g><g transform="translate(-19.76774,19.4678)" stroke-width="1"><use x="-8.96331" y="-1.02899" transform="rotate(180)" a57:href="#symbol-3" xmlns:a57="http://www.w3.org/1999/xlink" width="9.47102" height="25.56293" overflow="visible"/></g><g transform="translate(-11.10974,4.95414)" stroke-width="1"><use x="-1.96203" y="-12.78147" transform="" a58:href="#symbol-4" xmlns:a58="http://www.w3.org/1999/xlink" width="9.47102" height="25.56293" overflow="visible"/><use x="-8.96331" y="-1.02899" transform="rotate(180)" a59:href="#symbol-3" xmlns:a59="http://www.w3.org/1999/xlink" width="9.47102" height="25.56293" overflow="visible"/></g><g transform="translate(-2.45174,-9.55952)" stroke-width="1"><use x="-1.96203" y="-12.78147" transform="" a60:href="#symbol-4" xmlns:a60="http://www.w3.org/1999/xlink" width="9.47102" height="25.56293" overflow="visible"/><use x="-8.96331" y="-1.02899" transform="rotate(180)" a61:href="#symbol-3" xmlns:a61="http://www.w3.org/1999/xlink" width="9.47102" height="25.56293" overflow="visible"/></g><g transform="translate(6.20626,-24.07318)" stroke-width="1"><use x="-1.96203" y="-12.78147" transform="" a62:href="#symbol-4" xmlns:a62="http://www.w3.org/1999/xlink" width="9.47102" height="25.56293" overflow="visible"/><use x="-8.96331" y="-1.02899" transform="rotate(180)" a63:href="#symbol-3" xmlns:a63="http://www.w3.org/1999/xlink" width="9.47102" height="25.56293" overflow="visible"/></g><g transform="translate(14.86426,-38.58684)" stroke-width="1"><use x="-1.96203" y="-12.78147" transform="" a64:href="#symbol-4" xmlns:a64="http://www.w3.org/1999/xlink" width="9.47102" height="25.56293" overflow="visible"/></g><g transform="translate(-30.87748,24.42194)" stroke-width="1"><use x="-8.96331" y="-1.02899" transform="rotate(180)" a65:href="#symbol-4" xmlns:a65="http://www.w3.org/1999/xlink" width="9.47102" height="25.56293" overflow="visible"/></g><g transform="translate(-22.21948,9.90828)" stroke-width="1"><use x="-1.96203" y="-12.78147" transform="" a66:href="#symbol-2" xmlns:a66="http://www.w3.org/1999/xlink" width="9.47102" height="25.56293" overflow="visible"/><use x="-8.96331" y="-1.02899" transform="rotate(180)" a67:href="#symbol-4" xmlns:a67="http://www.w3.org/1999/xlink" width="9.47102" height="25.56293" overflow="visible"/></g><g transform="translate(-13.56148,-4.60538)" stroke-width="1"><use x="-1.96203" y="-12.78147" transform="" a68:href="#symbol-2" xmlns:a68="http://www.w3.org/1999/xlink" width="9.47102" height="25.56293" overflow="visible"/><use x="-8.96331" y="-1.02899" transform="rotate(180)" a69:href="#symbol-4" xmlns:a69="http://www.w3.org/1999/xlink" width="9.47102" height="25.56293" overflow="visible"/></g><g transform="translate(-4.90348,-19.11904)" stroke-width="1"><use x="-1.96203" y="-12.78147" transform="" a70:href="#symbol-2" xmlns:a70="http://www.w3.org/1999/xlink" width="9.47102" height="25.56293" overflow="visible"/><use x="-8.96331" y="-1.02899" transform="rotate(180)" a71:href="#symbol-4" xmlns:a71="http://www.w3.org/1999/xlink" width="9.47102" height="25.56293" overflow="visible"/></g><g transform="translate(3.75452,-33.6327)" stroke-width="1"><use x="-1.96203" y="-12.78147" transform="" a72:href="#symbol-2" xmlns:a72="http://www.w3.org/1999/xlink" width="9.47102" height="25.56293" overflow="visible"/><use x="-8.96331" y="-1.02899" transform="rotate(180)" a73:href="#symbol-4" xmlns:a73="http://www.w3.org/1999/xlink" width="9.47102" height="25.56293" overflow="visible"/></g><g transform="translate(12.41252,-48.14636)" stroke-width="1"><use x="-1.96203" y="-12.78147" transform="" a74:href="#symbol-2" xmlns:a74="http://www.w3.org/1999/xlink" width="9.47102" height="25.56293" overflow="visible"/></g><g transform="translate(-33.32922,14.86242)" stroke-width="1"><use x="-1.96203" y="-12.78147" transform="" a75:href="#symbol-3" xmlns:a75="http://www.w3.org/1999/xlink" width="9.47102" height="25.56293" overflow="visible"/><use x="-8.96331" y="-1.02899" transform="rotate(180)" a76:href="#symbol-2" xmlns:a76="http://www.w3.org/1999/xlink" width="9.47102" height="25.56293" overflow="visible"/></g><g transform="translate(-24.67122,0.34876)" stroke-width="1"><use x="-1.96203" y="-12.78147" transform="" a77:href="#symbol-3" xmlns:a77="http://www.w3.org/1999/xlink" width="9.47102" height="25.56293" overflow="visible"/><use x="-8.96331" y="-1.02899" transform="rotate(180)" a78:href="#symbol-2" xmlns:a78="http://www.w3.org/1999/xlink" width="9.47102" height="25.56293" overflow="visible"/></g><g transform="translate(-16.01322,-14.1649)" stroke-width="1"><use x="-1.96203" y="-12.78147" transform="" a79:href="#symbol-3" xmlns:a79="http://www.w3.org/1999/xlink" width="9.47102" height="25.56293" overflow="visible"/><use x="-8.96331" y="-1.02899" transform="rotate(180)" a80:href="#symbol-2" xmlns:a80="http://www.w3.org/1999/xlink" width="9.47102" height="25.56293" overflow="visible"/></g><g transform="translate(-7.35522,-28.67856)" stroke-width="1"><use x="-1.96203" y="-12.78147" transform="" a81:href="#symbol-3" xmlns:a81="http://www.w3.org/1999/xlink" width="9.47102" height="25.56293" overflow="visible"/><use x="-8.96331" y="-1.02899" transform="rotate(180)" a82:href="#symbol-2" xmlns:a82="http://www.w3.org/1999/xlink" width="9.47102" height="25.56293" overflow="visible"/></g><g transform="translate(1.30278,-43.19222)" stroke-width="1"><use x="-1.96203" y="-12.78147" transform="" a83:href="#symbol-3" xmlns:a83="http://www.w3.org/1999/xlink" width="9.47102" height="25.56293" overflow="visible"/></g><g transform="translate(-35.78096,5.3029)" stroke-width="1"><use x="-1.96203" y="-12.78147" transform="" a84:href="#symbol-4" xmlns:a84="http://www.w3.org/1999/xlink" width="9.47102" height="25.56293" overflow="visible"/><use x="-8.96331" y="-1.02899" transform="rotate(180)" a85:href="#symbol-3" xmlns:a85="http://www.w3.org/1999/xlink" width="9.47102" height="25.56293" overflow="visible"/></g><g transform="translate(-27.12296,-9.21076)" stroke-width="1"><use x="-1.96203" y="-12.78147" transform="" a86:href="#symbol-4" xmlns:a86="http://www.w3.org/1999/xlink" width="9.47102" height="25.56293" overflow="visible"/><use x="-8.96331" y="-1.02899" transform="rotate(180)" a87:href="#symbol-3" xmlns:a87="http://www.w3.org/1999/xlink" width="9.47102" height="25.56293" overflow="visible"/></g><g transform="translate(-18.46496,-23.72442)" stroke-width="1"><use x="-1.96203" y="-12.78147" transform="" a88:href="#symbol-4" xmlns:a88="http://www.w3.org/1999/xlink" width="9.47102" height="25.56293" overflow="visible"/><use x="-8.96331" y="-1.02899" transform="rotate(180)" a89:href="#symbol-3" xmlns:a89="http://www.w3.org/1999/xlink" width="9.47102" height="25.56293" overflow="visible"/></g><g transform="translate(-9.80696,-38.23808)" stroke-width="1"><use x="-1.96203" y="-12.78147" transform="" a90:href="#symbol-4" xmlns:a90="http://www.w3.org/1999/xlink" width="9.47102" height="25.56293" overflow="visible"/></g><g transform="translate(-38.2327,-4.25662)" stroke-width="1"><use x="-1.96203" y="-12.78147" transform="" a91:href="#symbol-2" xmlns:a91="http://www.w3.org/1999/xlink" width="9.47102" height="25.56293" overflow="visible"/><use x="-8.96331" y="-1.02899" transform="rotate(180)" a92:href="#symbol-4" xmlns:a92="http://www.w3.org/1999/xlink" width="9.47102" height="25.56293" overflow="visible"/></g><g transform="translate(-29.5747,-18.77028)" stroke-width="1"><use x="-1.96203" y="-12.78147" transform="" a93:href="#symbol-2" xmlns:a93="http://www.w3.org/1999/xlink" width="9.47102" height="25.56293" overflow="visible"/><use x="-8.96331" y="-1.02899" transform="rotate(180)" a94:href="#symbol-4" xmlns:a94="http://www.w3.org/1999/xlink" width="9.47102" height="25.56293" overflow="visible"/></g><g transform="translate(-20.9167,-33.28394)" stroke-width="1"><use x="-1.96203" y="-12.78147" transform="" a95:href="#symbol-2" xmlns:a95="http://www.w3.org/1999/xlink" width="9.47102" height="25.56293" overflow="visible"/><use x="-8.96331" y="-1.02899" transform="rotate(180)" a96:href="#symbol-4" xmlns:a96="http://www.w3.org/1999/xlink" width="9.47102" height="25.56293" overflow="visible"/></g><g transform="translate(-12.2587,-47.7976)" stroke-width="1"><use x="-1.96203" y="-12.78147" transform="" a97:href="#symbol-2" xmlns:a97="http://www.w3.org/1999/xlink" width="9.47102" height="25.56293" overflow="visible"/></g><g transform="translate(-40.68444,-13.81614)" stroke-width="1"><use x="-8.96331" y="-1.02899" transform="rotate(180)" a98:href="#symbol-2" xmlns:a98="http://www.w3.org/1999/xlink" width="9.47102" height="25.56293" overflow="visible"/></g><g transform="translate(-32.02644,-28.3298)" stroke-width="1"><use x="-1.96203" y="-12.78147" transform="" a99:href="#symbol-3" xmlns:a99="http://www.w3.org/1999/xlink" width="9.47102" height="25.56293" overflow="visible"/><use x="-8.96331" y="-1.02899" transform="rotate(180)" a100:href="#symbol-2" xmlns:a100="http://www.w3.org/1999/xlink" width="9.47102" height="25.56293" overflow="visible"/></g><g transform="translate(-23.36844,-42.84346)" stroke-width="1"><use x="-1.96203" y="-12.78147" transform="" a101:href="#symbol-3" xmlns:a101="http://www.w3.org/1999/xlink" width="9.47102" height="25.56293" overflow="visible"/></g><g transform="translate(-34.47818,-37.88932)" stroke-width="1"><use x="-1.96203" y="-12.78147" transform="" a102:href="#symbol-4" xmlns:a102="http://www.w3.org/1999/xlink" width="9.47102" height="25.56293" overflow="visible"/><use x="-8.96331" y="-1.02899" transform="rotate(180)" a103:href="#symbol-3" xmlns:a103="http://www.w3.org/1999/xlink" width="9.47102" height="25.56293" overflow="visible"/></g></g></g></svg>